<svg xmlns="http://www.w3.org/2000/svg" width="1080" height="1350" viewBox="0 0 1080 1350"><defs><linearGradient id="paper" x2="1" y2="1"><stop stop-color="#faf5ea"/><stop offset=".56" stop-color="#f1e7d8"/><stop offset="1" stop-color="#e8dccb"/></linearGradient><radialGradient id="wash"><stop stop-color="#ebddc5"/><stop offset="1" stop-color="#ebddc5" stop-opacity="0"/></radialGradient></defs><rect width="1080" height="1350" fill="url(#paper)"/><circle cx="80" cy="700" r="370" fill="url(#wash)" opacity=".72"/><g fill="none" stroke="#413930" stroke-opacity=".12" stroke-width="2"><path d="M-40 185 C190 125 340 260 560 190 S880 130 1130 230"/><path d="M-40 297 C190 237 340 372 560 302 S880 242 1130 342"/><path d="M-40 409 C190 349 340 484 560 414 S880 354 1130 454"/><path d="M-40 521 C190 461 340 596 560 526 S880 466 1130 566"/><path d="M-40 633 C190 573 340 708 560 638 S880 578 1130 678"/><path d="M-40 745 C190 685 340 820 560 750 S880 690 1130 790"/><path d="M-40 857 C190 797 340 932 560 862 S880 802 1130 902"/><path d="M-40 969 C190 909 340 1044 560 974 S880 914 1130 1014"/><path d="M-40 1081 C190 1021 340 1156 560 1086 S880 1026 1130 1126"/><path d="M-40 1193 C190 1133 340 1268 560 1198 S880 1138 1130 1238"/></g><rect x="34" y="34" width="1012" height="1282" rx="52" fill="none" stroke="#413930" stroke-opacity=".14" stroke-width="2"/><text x="72" y="88" fill="#735535" font-family="Arial" font-size="20" font-weight="800">+  MI MAPA</text><text x="1008" y="86" text-anchor="end" fill="#735535" font-family="Arial" font-size="14" font-weight="800">LOS 10 CENTROS</text><path d="M70 530 C180 530 190 450 310 450 S440 575 560 575 S700 380 820 380 S930 470 1020 470" fill="none" stroke="#b58b55" stroke-width="5" stroke-dasharray="14 14"/><text x="72" y="202" fill="#735535" font-family="Arial" font-size="28" font-weight="800">TU CENTRO:</text><text x="72" y="328" fill="#735535" font-family="Georgia" font-size="88" font-weight="800">TIERRA YIN</text><circle cx="875" cy="278" r="126" fill="#ebddc5"/><circle cx="875" cy="278" r="94" fill="none" stroke="#735535" stroke-width="3"/><text x="875" y="295" text-anchor="middle" fill="#735535" font-family="Georgia" font-size="46" font-weight="700">己</text><text fill="#37342f" font-family="Georgia" font-size="68" font-weight="700"><tspan x="72" y="700">¿Detectas qué necesita</tspan><tspan x="72" y="778">cada persona?</tspan></text><rect x="72" y="955" width="780" height="150" rx="28" fill="#fffdf8" fill-opacity=".72"/><text fill="#735535" font-family="Georgia" font-size="27"><tspan x="104" y="1010">Notas los cuidados pequeños que mantienen una</tspan><tspan x="104" y="1048">tarea funcionando.</tspan></text><path d="M72 1236H1008" stroke="#413930" stroke-opacity=".16"/><text x="72" y="1275" fill="#735535" font-family="Arial" font-size="18" font-weight="800">TU CARTA COMPLETA ES GRATIS</text><text x="1008" y="1275" text-anchor="end" fill="#34322e" font-family="Arial" font-size="15" font-weight="600">mi-mapa.github.io  ↗</text></svg>