<svg xmlns="http://www.w3.org/2000/svg" width="1080" height="1350" viewBox="0 0 1080 1350"><defs><linearGradient id="paper" x2="1" y2="1"><stop stop-color="#faf5ea"/><stop offset=".56" stop-color="#f1e7d8"/><stop offset="1" stop-color="#e8dccb"/></linearGradient><radialGradient id="wash"><stop stop-color="#e4e4e1"/><stop offset="1" stop-color="#e4e4e1" stop-opacity="0"/></radialGradient></defs><rect width="1080" height="1350" fill="url(#paper)"/><circle cx="80" cy="700" r="370" fill="url(#wash)" opacity=".72"/><g fill="none" stroke="#413930" stroke-opacity=".12" stroke-width="2"><path d="M-40 185 C190 125 340 260 560 190 S880 130 1130 230"/><path d="M-40 297 C190 237 340 372 560 302 S880 242 1130 342"/><path d="M-40 409 C190 349 340 484 560 414 S880 354 1130 454"/><path d="M-40 521 C190 461 340 596 560 526 S880 466 1130 566"/><path d="M-40 633 C190 573 340 708 560 638 S880 578 1130 678"/><path d="M-40 745 C190 685 340 820 560 750 S880 690 1130 790"/><path d="M-40 857 C190 797 340 932 560 862 S880 802 1130 902"/><path d="M-40 969 C190 909 340 1044 560 974 S880 914 1130 1014"/><path d="M-40 1081 C190 1021 340 1156 560 1086 S880 1026 1130 1126"/><path d="M-40 1193 C190 1133 340 1268 560 1198 S880 1138 1130 1238"/></g><rect x="34" y="34" width="1012" height="1282" rx="52" fill="none" stroke="#413930" stroke-opacity=".14" stroke-width="2"/><text x="72" y="88" fill="#555b5e" font-family="Arial" font-size="20" font-weight="800">+  MI MAPA</text><text x="1008" y="86" text-anchor="end" fill="#555b5e" font-family="Arial" font-size="14" font-weight="800">SEMANA PARA GALLO</text><text x="64" y="240" fill="#555b5e" font-family="Arial" font-size="138" font-weight="900">ESTA</text><text x="64" y="374" fill="#555b5e" font-family="Arial" font-size="138" font-weight="900">SEMANA</text><path d="M105 650 C230 650 250 560 370 560 S540 705 675 705 S840 565 970 565" fill="none" stroke="#8b8d8a" stroke-width="5"/><g fill="#f7f1e7" stroke="#555b5e" stroke-width="4"><circle cx="105" cy="650" r="22"/><circle cx="675" cy="705" r="22"/><circle cx="970" cy="565" r="22"/></g><circle cx="370" cy="560" r="42" fill="#555b5e"/><path d="M9 18V8c2-3 6-3 8 0v6c-1 3-5 5-8 4zM11 6c0-2 2-3 3-1 1-2 3-1 3 1M17 9l3 2-3 1M7 10 4 8M7 13 4 14" transform="translate(310 500) scale(5)" fill="none" stroke="#f7f1e7" stroke-width="1" stroke-linecap="round" stroke-linejoin="round"/><text x="72" y="835" fill="#555b5e" font-family="Arial" font-size="17" font-weight="800">GALLO</text><text fill="#34322e" font-family="Georgia" font-style="italic" font-size="54" font-weight="700"><tspan x="72" y="910">Esta semana elige una</tspan><tspan x="72" y="974">prioridad y completa una</tspan><tspan x="72" y="1038">tarea a la vez.</tspan></text><text fill="#555b5e" font-family="Arial" font-size="16" font-weight="700"><tspan x="72" y="1150">ERES GALLO SI NACISTE EN: 1957 · 1969 · 1981 · 1993 · 2005 · 2017 · 2029</tspan></text><path d="M72 1236H1008" stroke="#413930" stroke-opacity=".16"/><text x="72" y="1275" fill="#555b5e" font-family="Arial" font-size="18" font-weight="800">TU CARTA COMPLETA ES GRATIS</text><text x="1008" y="1275" text-anchor="end" fill="#34322e" font-family="Arial" font-size="15" font-weight="600">mi-mapa.github.io  ↗</text></svg>